<svg version="1.2" xmlns="http://www.w3.org/2000/svg" viewBox="0 0 628 165" width="628" height="165">
	<title>Red Modern Burger Food Presentation (1)-svg</title>
	<defs>
		<clipPath clipPathUnits="userSpaceOnUse" id="cp1">
			<path d="m408.91 12.39h101.09v53.19h-101.09z"/>
		</clipPath>
		<clipPath clipPathUnits="userSpaceOnUse" id="cp2">
			<path d="m423.64 65.58q-2.87 0-5.73-1.2c-7.48-3.18-10.99-11.78-7.8-19.27 8.36-19.9 27.71-32.72 49.28-32.72 21.58 0 40.93 12.82 49.37 32.72 3.19 7.49-0.31 16.17-7.8 19.27-7.49 3.19-16.16-0.31-19.27-7.8-3.82-8.92-12.58-14.73-22.3-14.73-9.71 0-18.39 5.81-22.21 14.73-2.31 5.57-7.8 9-13.54 9z"/>
		</clipPath>
		<clipPath clipPathUnits="userSpaceOnUse" id="cp3">
			<path d="m418 60h36v34h-36z"/>
		</clipPath>
		<clipPath clipPathUnits="userSpaceOnUse" id="cp4">
			<path d="m454.09 93.61l-34.96 0.69-0.65-33.22 34.96-0.69z"/>
		</clipPath>
		<clipPath clipPathUnits="userSpaceOnUse" id="cp5">
			<path d="m446.77 60.52l7.07 20.4-17.21 13.03-17.72-12.34 6.27-20.66z"/>
		</clipPath>
		<clipPath clipPathUnits="userSpaceOnUse" id="cp6">
			<path d="m405.93 38.98h110.16v38.36h-110.16z"/>
		</clipPath>
	</defs>
	<style>
		.s0 { fill: none;stroke: #000000;stroke-linecap: round;stroke-width: 22.5 } 
		.s1 { fill: #000000 } 
		.s2 { fill: #ffffff } 
		.s3 { fill: none;stroke: #ff101d;stroke-linecap: round;stroke-width: 22.5 } 
		.s4 { fill: none;stroke: #ff101d;stroke-linecap: round;stroke-width: 3 } 
	</style>
	<path id="Layer" fill-rule="evenodd" class="s0" d="m422 96.9h74.8"/>
	<g id="Clip-Path" clip-path="url(#cp1)">
		<g id="Layer">
			<g id="Clip-Path" clip-path="url(#cp2)">
				<g id="Layer">
					<path id="Layer" class="s1" d="m408.9 12.4h101v53.2h-101z"/>
				</g>
			</g>
		</g>
	</g>
	<g id="Clip-Path" clip-path="url(#cp3)">
		<g id="Layer">
			<g id="Clip-Path" clip-path="url(#cp4)">
				<g id="Layer">
					<g id="Clip-Path" clip-path="url(#cp5)">
						<g id="Layer">
							<path id="Layer" class="s2" d="m454.1 93.6l-35 0.7-0.6-33.2 34.9-0.7z"/>
						</g>
					</g>
				</g>
			</g>
		</g>
	</g>
	<g id="Clip-Path" clip-path="url(#cp6)">
		<g id="Layer">
			<path id="Layer" class="s2" d="m405.9 39h110.2v38.3h-110.2z"/>
		</g>
	</g>
	<path id="Layer" fill-rule="evenodd" class="s3" d="m422 62.3h74.8"/>
	<g id="Layer">
		<g id="Layer">
			<g id="Layer">
				<path id="Layer" fill-rule="evenodd" class="s1" d="m14.7 15.6h34.1q19.9 0 29.5 6 9.7 5.9 9.7 18.4 0 8.2-4.2 14-4.2 5.8-11.1 7.5v0.6q9.1 2.4 13.1 8 4.1 5.7 4.1 14.6 0 13.3-10 21-10 7.6-27.2 7.6h-38zm26.4 37.5h7.9q5.7 0 8.8-2.3 3.1-2.4 3.1-7 0-8.2-12.4-8.2h-7.4zm0 19.3v20.5h9.3q12.3 0 12.3-10.4 0-4.9-3.3-7.5-3.3-2.6-9.6-2.6z"/>
			</g>
		</g>
	</g>
	<g id="Layer">
		<g id="Layer">
			<g id="Layer">
				<path id="Layer" class="s1" d="m189.9 15.6v58.8q0 19.2-10.9 29.7-10.8 10.5-31.3 10.5-19.9 0-30.7-10.2-10.7-10.2-10.7-29.4v-59.4h26.6v57.4q-0.1 10.3 3.8 15 3.9 4.7 11.4 4.7 8.1 0 11.8-4.7 3.6-4.6 3.6-15.2v-57.2z"/>
			</g>
		</g>
	</g>
	<g id="Layer">
		<g id="Layer">
			<g id="Layer">
				<path id="Layer" fill-rule="evenodd" class="s1" d="m236.8 77.8v35.5h-26.4v-97.7h32q39.8 0 39.8 28.9 0 17-16.6 26.3l28.5 42.5h-29.9l-20.7-35.5zm0-19.9h4.9q13.8 0 13.8-12.2 0-10.1-13.5-10.1h-5.2z"/>
			</g>
		</g>
	</g>
	<g id="Layer">
		<g id="Layer">
			<g id="Layer">
				<path id="Layer" class="s1" d="m342.2 56.1h42.1v52.7q-17.1 5.8-37.7 5.8-22.6 0-34.9-13-12.3-13.1-12.3-37.4 0-23.6 13.4-36.8 13.5-13.2 37.9-13.2 9.2 0 17.4 1.8 8.1 1.7 14.2 4.4l-8.3 20.7q-10.6-5.2-23.2-5.2-11.6 0-17.9 7.5-6.3 7.5-6.3 21.5 0 13.7 5.7 20.9 5.7 7.1 16.5 7.1 5.9 0 10.8-1.1v-15.3h-17.4z"/>
			</g>
		</g>
	</g>
	<g id="Layer">
		<g id="Layer">
			<g id="Layer">
				<path id="Layer" fill-rule="evenodd" class="s1" d="m558.8 78.6v35.5h-26.4v-97.7h32q39.9 0 39.9 28.9 0 17-16.6 26.3l28.4 42.5h-29.9l-20.7-35.5zm0-19.9h5q13.8 0 13.8-12.2 0-10.1-13.6-10.1h-5.2z"/>
			</g>
		</g>
	</g>
	<g id="Layer">
		<g id="Layer">
			<g id="Layer">
				<path id="Layer" fill-rule="evenodd" class="s1" d="m159.7 143.8q0 6.2-3.5 9.5-3.6 3.3-10.2 3.3h-7.1v-25.1h7.8q6.2 0 9.6 3.3 3.4 3.2 3.4 9zm-5.5 0.2q0-8.1-7.2-8.1h-2.8v16.3h2.3q7.7 0 7.7-8.2z"/>
			</g>
		</g>
	</g>
	<g id="Layer">
		<g id="Layer">
			<g id="Layer">
				<path id="Layer" fill-rule="evenodd" class="s1" d="m178.4 157q-4.6 0-7.3-2.6-2.6-2.5-2.6-7.2 0-4.9 2.4-7.5 2.5-2.6 6.7-2.6 4.1 0 6.4 2.3 2.2 2.3 2.2 6.4v2.5h-12.4q0.1 2.3 1.4 3.5 1.2 1.3 3.4 1.3 1.8 0 3.3-0.4 1.6-0.4 3.2-1.1v4q-1.3 0.7-2.9 1-1.6 0.4-3.8 0.4zm-0.8-16.2q-1.6 0-2.6 1.1-0.9 1-1 2.9h7.3q0-1.9-1-2.9-1-1.1-2.7-1.1z"/>
			</g>
		</g>
	</g>
	<g id="Layer">
		<g id="Layer">
			<g id="Layer">
				<path id="Layer" class="s1" d="m200.9 156.6h-5.2v-26.7h5.2z"/>
			</g>
		</g>
	</g>
	<g id="Layer">
		<g id="Layer">
			<g id="Layer">
				<path id="Layer" class="s1" d="m211.4 132.5q0-2.6 2.9-2.6 2.8 0 2.8 2.6 0 1.2-0.7 1.9-0.7 0.6-2.1 0.6-2.9 0-2.9-2.5zm5.5 24.1h-5.2v-19.2h5.2z"/>
			</g>
		</g>
	</g>
	<g id="Layer">
		<g id="Layer">
			<g id="Layer">
				<path id="Layer" fill-rule="evenodd" class="s1" d="m244.3 137.4v2.7l-3 0.8q0.8 1.2 0.8 2.8 0 3.1-2.1 4.9-2.2 1.7-6 1.7l-0.9-0.1-0.8-0.1q-0.8 0.7-0.8 1.4 0 1.1 2.9 1.1h3.2q3.2 0 4.8 1.4 1.7 1.4 1.7 4 0 3.3-2.8 5.2-2.8 1.9-8.1 1.9-4 0-6.1-1.4-2.1-1.4-2.1-4 0-1.7 1.1-2.9 1-1.1 3.1-1.6-0.8-0.4-1.4-1.1-0.6-0.8-0.6-1.7 0-1.1 0.7-1.8 0.6-0.8 1.8-1.5-1.5-0.6-2.4-2.1-0.9-1.4-0.9-3.4 0-3.1 2.1-4.8 2-1.7 5.8-1.7 0.8 0 1.9 0.1 1.1 0.2 1.4 0.2zm-14.8 21.9q0 1.1 1 1.7 1.1 0.6 3 0.6 2.8 0 4.4-0.7 1.6-0.8 1.6-2.1 0-1.1-1-1.5-0.9-0.5-2.9-0.4h-2.7q-1.5-0.1-2.4 0.6-1 0.7-1 1.8zm1.9-15.6q0 1.6 0.7 2.5 0.7 0.9 2.2 0.9 1.5 0 2.2-0.9 0.7-0.9 0.7-2.5 0-3.5-2.9-3.5-2.9 0-2.9 3.5z"/>
			</g>
		</g>
	</g>
	<g id="Layer">
		<g id="Layer">
			<g id="Layer">
				<path id="Layer" class="s1" d="m270.4 156.6h-5.2v-11.2q0-4.1-3.1-4.1-2.2 0-3.2 1.5-1 1.4-1 4.8v9h-5.2v-26.7h5.2v5.5q0 0.6-0.1 2.9l-0.1 1.6h0.3q1.7-2.8 5.5-2.8 3.4 0 5.2 1.8 1.7 1.8 1.7 5.2z"/>
			</g>
		</g>
	</g>
	<g id="Layer">
		<g id="Layer">
			<g id="Layer">
				<path id="Layer" class="s1" d="m289.1 152.8q1.4 0 3.3-0.6v3.9q-1.9 0.9-4.8 0.9-3.1 0-4.6-1.6-1.4-1.6-1.4-4.8v-9.2h-2.5v-2.3l2.9-1.7 1.5-4.1h3.3v4.1h5.4v4h-5.4v9.2q0 1.1 0.7 1.7 0.6 0.5 1.6 0.5z"/>
			</g>
		</g>
	</g>
	<g id="Layer">
		<g id="Layer">
			<g id="Layer">
				<path id="Layer" class="s1" d="m312.1 141.4h-4.5v15.2h-5.2v-15.2h-2.9v-2.6l2.9-1.4v-1.4q0-3.3 1.6-4.8 1.6-1.5 5.2-1.5 2.7 0 4.8 0.8l-1.4 3.9q-1.5-0.5-2.9-0.5-1.1 0-1.6 0.6-0.5 0.7-0.5 1.7v1.2h4.5z"/>
			</g>
		</g>
	</g>
	<g id="Layer">
		<g id="Layer">
			<g id="Layer">
				<path id="Layer" class="s1" d="m334 156.6l-0.7-2.4h-0.3q-0.9 1.3-2.4 2-1.5 0.8-3.5 0.8-3.4 0-5.1-1.9-1.7-1.8-1.7-5.2v-12.5h5.2v11.2q0 2.1 0.7 3.2 0.8 1 2.4 1 2.2 0 3.2-1.5 1-1.4 1-4.8v-9.1h5.2v19.2z"/>
			</g>
		</g>
	</g>
	<g id="Layer">
		<g id="Layer">
			<g id="Layer">
				<path id="Layer" class="s1" d="m353.9 156.6h-5.2v-26.7h5.2z"/>
			</g>
		</g>
	</g>
	<g id="Layer">
		<g id="Layer">
			<g id="Layer">
			</g>
		</g>
	</g>
	<g id="Layer">
		<g id="Layer">
			<g id="Layer">
				<path id="Layer" class="s1" d="m389.1 156.6h-5.3v-20.7h-6.8v-4.4h18.9v4.4h-6.8z"/>
			</g>
		</g>
	</g>
	<g id="Layer">
		<g id="Layer">
			<g id="Layer">
				<path id="Layer" fill-rule="evenodd" class="s1" d="m416.8 156.6l-1-2.6h-0.1q-1.4 1.7-2.8 2.3-1.4 0.7-3.6 0.7-2.8 0-4.4-1.6-1.6-1.6-1.6-4.5 0-3.1 2.2-4.5 2.1-1.5 6.4-1.6l3.4-0.1v-0.9q0-2.9-3-2.9-2.3 0-5.4 1.4l-1.8-3.5q3.3-1.8 7.4-1.8 3.8 0 5.9 1.7 2.1 1.7 2.1 5.1v12.8zm-1.6-8.9l-2 0.1q-2.3 0.1-3.4 0.8-1.1 0.8-1.1 2.3 0 2.2 2.5 2.2 1.8 0 2.9-1 1.1-1.1 1.1-2.8z"/>
			</g>
		</g>
	</g>
	<g id="Layer">
		<g id="Layer">
			<g id="Layer">
				<path id="Layer" class="s1" d="m444.5 150.9q0 3-2.1 4.5-2 1.6-6.1 1.6-2.1 0-3.6-0.3-1.5-0.3-2.8-0.8v-4.4q1.5 0.7 3.3 1.2 1.9 0.4 3.3 0.4 2.8 0 2.8-1.6 0-0.6-0.4-1-0.3-0.4-1.3-0.9-0.9-0.5-2.5-1.1-2.2-1-3.2-1.7-1.1-0.8-1.5-1.9-0.5-1-0.5-2.5 0-2.5 2-3.9 2-1.4 5.6-1.4 3.5 0 6.8 1.5l-1.6 3.8q-1.5-0.7-2.7-1.1-1.3-0.4-2.6-0.4-2.3 0-2.3 1.3 0 0.7 0.8 1.2 0.7 0.5 3.2 1.5 2.3 1 3.3 1.7 1.1 0.8 1.6 1.9 0.5 1 0.5 2.4z"/>
			</g>
		</g>
	</g>
	<g id="Layer">
		<g id="Layer">
			<g id="Layer">
				<path id="Layer" class="s1" d="m461.9 152.8q1.3 0 3.3-0.6v3.9q-2 0.9-4.8 0.9-3.2 0-4.6-1.6-1.5-1.6-1.5-4.8v-9.2h-2.5v-2.3l2.9-1.7 1.5-4.1h3.4v4.1h5.4v4h-5.4v9.2q0 1.1 0.6 1.7 0.6 0.5 1.7 0.5z"/>
			</g>
		</g>
	</g>
	<g id="Layer">
		<g id="Layer">
			<g id="Layer">
				<path id="Layer" fill-rule="evenodd" class="s1" d="m483 157q-4.7 0-7.3-2.6-2.6-2.5-2.6-7.2 0-4.9 2.4-7.5 2.4-2.6 6.7-2.6 4.1 0 6.3 2.3 2.3 2.3 2.3 6.4v2.5h-12.4q0.1 2.3 1.3 3.5 1.3 1.3 3.5 1.3 1.7 0 3.3-0.4 1.5-0.4 3.2-1.1v4q-1.4 0.7-2.9 1-1.6 0.4-3.8 0.4zm-0.8-16.2q-1.6 0-2.6 1.1-0.9 1-1.1 2.9h7.4q-0.1-1.9-1-2.9-1-1.1-2.7-1.1z"/>
			</g>
		</g>
	</g>
	<path id="Layer" fill-rule="evenodd" class="s4" d="m20.4 146.9h99.2"/>
	<path id="Layer" fill-rule="evenodd" class="s4" d="m514.1 146.9h99.2"/>
</svg>